<svg width="541" height="364" viewBox="0 0 541 364" fill="none" xmlns="http://www.w3.org/2000/svg">
<path d="M386.592 0C388.563 0.454832 390.567 0.755815 392.585 0.90024C395.006 3.45842 394.906 5.95909 392.286 8.40224C392.086 10.8029 391.886 13.2035 391.686 15.6042L390.787 16.5044C391.551 17.774 391.964 19.2237 391.986 20.7055C392.316 23.3928 392.416 26.1033 392.286 28.8077C390.177 32.9215 387.559 36.7527 384.494 40.2107C382.985 45.9891 384.783 50.3902 389.888 53.4142C390.765 53.0594 391.503 52.4281 391.99 51.6159C392.476 50.8037 392.685 49.8549 392.585 48.913C392.088 46.9928 391.278 45.1678 390.188 43.5116C391.755 38.7757 394.452 37.8755 398.279 40.8109C399.569 49.1494 400.171 57.5802 400.077 66.0176C400.803 67.9315 401.502 69.832 402.175 71.7191C402.075 72.4195 401.975 73.1197 401.876 73.8197C400.577 74.7199 399.278 75.6201 397.98 76.5204C398.447 77.9822 398.749 79.4921 398.879 81.0216C402.246 84.2002 406.088 86.8326 410.267 88.8237C410.466 91.2243 410.666 93.6249 410.866 96.0256C412.415 100.809 414.422 105.432 416.86 109.829C416.891 113.875 417.394 117.903 418.358 121.832C414.212 122.011 410.095 122.614 406.071 123.633C405.828 124.316 405.729 125.042 405.78 125.765C405.832 126.488 406.033 127.193 406.371 127.834C408.38 129.547 410.924 130.503 413.563 130.535C407.195 137.498 403.666 146.6 403.674 156.042C403.19 156.357 402.637 156.55 402.063 156.602C401.488 156.654 400.909 156.565 400.377 156.342C400.595 152.056 398.597 149.955 394.383 150.04C394.635 151.047 394.569 152.108 394.193 153.075C393.817 154.043 393.151 154.869 392.286 155.441C391.924 163.093 391.524 170.695 391.087 178.247C393.656 180.008 396.253 181.808 398.879 183.649C400.571 187.461 399.373 189.862 395.282 190.851C391.423 189.964 387.403 190.067 383.595 191.151C382.895 192.251 382.196 193.351 381.497 194.452C381.297 197.253 381.098 200.053 380.898 202.854C377.811 206.547 374.508 210.054 371.008 213.357C367.678 214.424 365.38 213.324 364.115 210.056C363.979 207.619 363.577 205.204 362.917 202.854C361.833 201.914 360.455 201.383 359.021 201.354C358.671 200.814 358.465 200.195 358.421 199.553C359.763 194.337 360.666 189.017 361.119 183.649C361.993 182.166 362.602 180.541 362.917 178.848C363.055 178.511 363.259 178.205 363.516 177.947C363.773 177.69 364.079 177.486 364.415 177.347C366.192 176.931 367.994 176.63 369.809 176.447C369.71 173.643 369.81 170.835 370.109 168.045C371.319 163.713 372.22 159.301 372.806 154.841C371.956 149.424 371.057 144.022 370.109 138.637C368.404 136.007 366.392 133.589 364.115 131.435C363.419 128.481 363.018 125.466 362.917 122.433C361.341 121.456 359.926 120.242 358.721 118.832C358.082 112.654 357.582 106.453 357.223 100.227C356.018 99.6253 354.819 99.0252 353.626 98.4262C354.442 94.8133 355.861 91.364 357.822 88.2235C358.669 87.5491 359.572 86.9468 360.519 86.423C361.19 84.0779 362.547 81.9876 364.415 80.4214C365.055 80.7826 365.778 80.9724 366.513 80.9724C367.248 80.9724 367.97 80.7826 368.611 80.4214C369.708 74.4022 372.764 68.9157 377.301 64.8173C377.851 63.9097 378.16 62.8769 378.201 61.8165C376.698 58.7094 375.1 55.6086 373.406 52.514C375.872 47.7795 377.687 42.7323 378.8 37.51C378.449 34.2356 377.205 31.1211 375.204 28.5076C371.461 26.6813 367.377 25.6591 363.216 25.5068C360.872 23.0834 361.271 21.0828 364.415 19.5052C366.966 19.2738 369.428 18.4519 371.607 17.1046C374.137 13.5532 376.439 9.84477 378.5 6.0016C380.533 3.23135 383.353 1.13966 386.592 0Z" fill="#BABEC3"/>
<path d="M112.082 93.0246C111.636 93.2914 111.314 93.7224 111.183 94.225C110.926 98.8486 110.826 103.35 110.883 107.729C112.835 111.981 115.247 116.006 118.075 119.732C117.702 121.602 116.879 123.353 115.678 124.833C115.169 125.162 114.742 125.604 114.43 126.124C114.118 126.644 113.93 127.229 113.88 127.834C112.981 129.52 111.982 131.221 110.883 132.935C111.781 136.412 112.68 139.913 113.58 143.438C115.962 148.589 119.858 150.69 125.268 149.74C127.758 144.269 130.255 138.768 132.76 133.235C133.432 131.759 134.428 130.453 135.673 129.414C136.918 128.375 138.381 127.63 139.952 127.234C141.948 128.36 143.765 129.776 145.346 131.435C146.078 133.259 147.204 134.899 148.643 136.236C152.601 138.898 156.313 141.911 159.731 145.239C160.808 147.774 161.709 150.381 162.428 153.041C163.983 153.541 165.594 153.844 167.223 153.941C172.981 150.375 178.576 146.574 184.006 142.538C184.769 142.245 185.591 142.142 186.403 142.238C186.476 147.246 186.276 152.255 185.804 157.242C183.588 157.047 181.355 157.25 179.211 157.842C178.056 160.441 176.543 162.866 174.715 165.044C174.816 167.609 174.08 170.137 172.618 172.246C169.308 173.218 165.878 173.723 162.428 173.746C159.58 176.083 157.493 179.217 156.435 182.749C157.257 184.983 158.365 187.101 159.731 189.05C161.193 189.714 162.365 190.887 163.028 192.351C164.227 192.551 165.425 192.751 166.624 192.951C167.958 195.494 169.793 197.74 172.018 199.553C169.683 210.201 170.2 221.278 173.517 231.662C175.49 234.285 177.928 236.522 180.709 238.263C182.98 237.593 185.043 236.353 186.703 234.662C187.412 236.585 188.538 238.328 189.999 239.764C191.908 241.019 193.912 242.122 195.993 243.065C196.408 245.044 196.408 247.087 195.993 249.066C198.419 248.701 200.757 247.887 202.886 246.666C202.898 249.381 204.197 251.181 206.782 252.067C208.032 250.577 209.136 248.969 210.078 247.266C212.455 245.595 215.267 244.656 218.17 244.565C222.17 241.172 227.321 239.453 232.554 239.764C234.205 240.639 235.72 241.751 237.05 243.065C237.727 247.73 238.729 252.342 240.046 256.868C240.857 258.004 242.014 258.846 243.343 259.269C244.304 260.589 245.409 261.797 246.639 262.87L247.239 262.27C254.519 262.614 261.812 263.114 269.116 263.77C271.323 264.562 272.222 266.063 271.813 268.271C265.008 272.144 257.619 274.88 249.936 276.373C249.608 277.149 249.117 277.846 248.496 278.415C247.876 278.985 247.14 279.414 246.34 279.674C242.685 278.358 238.724 278.149 234.952 279.074C234.153 280.675 233.354 282.275 232.554 283.875C226.588 284.05 220.595 284.05 214.573 283.875C214.744 285.514 215.366 287.073 216.371 288.377C211.049 297.333 205.954 306.436 201.088 315.684C197.257 313.573 194.36 314.473 192.397 318.385C190.974 319.497 189.344 320.313 187.602 320.785C182.407 320.985 177.213 321.185 172.018 321.385C169.753 324.342 168.654 323.842 168.722 319.885C167.848 318.232 166.737 316.716 165.425 315.384C162.073 314.977 158.764 314.274 155.536 313.283C152.836 314.687 150.138 316.187 147.444 317.785C145.866 320.165 143.828 322.206 141.451 323.786C133.243 325.948 124.756 326.858 116.277 326.487C116.165 325.247 115.862 324.033 115.378 322.886C113.183 320.449 110.662 318.329 107.886 316.584C99.8605 315.773 91.869 314.673 83.9114 313.283C83.366 313.34 82.8472 313.548 82.4129 313.883C80.5585 313.006 78.6605 312.206 76.719 311.483C75.9685 310.43 75.5509 309.175 75.5202 307.882C76.843 303.108 78.0418 298.307 79.1164 293.478C79.9927 292.895 80.7919 293.095 81.5139 294.078C82.7048 297.09 84.0035 300.291 85.4098 303.681C88.1213 305.981 90.7186 305.981 93.2016 303.681C92.817 301.585 92.9195 299.429 93.5012 297.379C92.7556 297.105 92.2562 297.405 92.0028 298.279C91.7089 298.084 91.4712 297.815 91.3134 297.499C91.1557 297.183 91.0834 296.831 91.1038 296.479C92.39 296.361 92.4899 295.761 91.4035 294.678C90.5691 293.273 90.0697 293.273 89.905 294.678C88.6903 293.446 87.6788 292.028 86.9082 290.477C86.6313 289.812 86.4887 289.098 86.4887 288.377C86.4887 287.656 86.6313 286.942 86.9082 286.276C86.3536 283.569 85.4468 280.945 84.211 278.474H82.4129C82.4746 277.416 82.258 276.36 81.7847 275.413C81.3114 274.465 80.598 273.658 79.7158 273.073C77.9746 271.175 75.9533 269.556 73.7221 268.271C73.3306 265.476 72.3055 262.807 70.7253 260.469C69.9835 258.785 69.0802 257.177 68.0281 255.668C67.8933 255.834 67.7966 256.027 67.7448 256.235C67.693 256.442 67.6874 256.658 67.7285 256.868C67.3441 256.766 67.0103 256.526 66.7896 256.195C66.5689 255.863 66.4765 255.463 66.5297 255.068C66.684 255.054 66.8286 254.986 66.9382 254.877C67.0478 254.767 67.1153 254.622 67.1291 254.468C66.5171 253.627 65.9178 252.827 65.331 252.067C64.5284 250.643 63.7293 249.242 62.9335 247.866C60.729 245.042 58.5314 242.241 56.3405 239.464C56.1481 238.389 55.6499 237.392 54.9057 236.593C54.1614 235.795 53.2028 235.229 52.1449 234.962C52.4168 234.717 52.6229 234.408 52.7443 234.062C50.5522 232.375 48.4514 230.572 46.4509 228.661C44.3009 225.017 41.7909 221.599 38.9588 218.458C39.7578 218.058 39.7578 217.658 38.9588 217.258C38.1698 216.067 37.1508 215.047 35.962 214.257C34.512 212.786 33.2073 211.178 32.0661 209.456C31.5483 211.614 30.849 211.514 29.9683 209.156C30.3681 208.956 30.7677 208.756 31.1671 208.555C29.6949 206.854 27.8483 205.519 25.7728 204.654C25.1507 204.107 24.7288 203.368 24.574 202.554C26.2271 197.631 27.9253 192.729 29.6687 187.85C31.64 186.417 33.538 184.916 35.3626 183.349L34.4636 180.648C30.5899 177.766 26.8875 174.66 23.3753 171.346C23.7751 171.146 24.1747 170.946 24.574 170.745C23.8741 169.939 23.0675 169.232 22.1766 168.645C21.5484 167.185 21.1489 167.185 20.9778 168.645C20.695 168.559 20.4376 168.404 20.2286 168.195C20.0195 167.985 19.8651 167.728 19.7791 167.444C19.8981 167.468 20.0215 167.451 20.13 167.397C20.2384 167.343 20.3258 167.254 20.3785 167.144C19.0826 165.609 17.8839 164.109 16.7823 162.643C15.9875 161.404 16.3871 160.604 17.981 160.243C18.2986 159.938 18.5018 159.533 18.5563 159.095C18.6109 158.658 18.5136 158.216 18.2807 157.842C16.9818 154.501 15.0481 151.443 12.5867 148.84C13.3857 148.439 13.3857 148.039 12.5867 147.639C10.8022 142.435 10.0886 136.923 10.4889 131.435C12.0874 128.634 13.6857 125.833 15.2839 123.033C15.6836 120.246 15.6836 117.417 15.2839 114.63C10.3289 115.331 5.23428 115.831 0 116.131C1.37031 115.638 2.77195 115.237 4.19557 114.93C3.57405 114.912 2.96237 114.771 2.39633 114.513C1.83029 114.255 1.32126 113.887 0.89905 113.43C0.499279 108.637 0.499279 103.819 0.89905 99.0262C4.69794 98.3077 8.4134 97.2016 11.9873 95.7254C16.0702 92.5379 20.066 89.237 23.9747 85.8227C27.7328 81.3739 30.6751 76.2942 32.6655 70.8187C32.7422 67.7507 32.8421 64.95 32.9652 62.4165C34.9292 61.9227 36.9365 61.6212 38.9588 61.5163C45.3867 57.6845 50.666 52.1909 54.2427 45.612C57.3279 43.2537 60.8516 41.5348 64.6079 40.5558C68.3642 39.5769 72.2777 39.3575 76.1196 39.9105C78.8646 37.6383 81.8853 35.7226 85.1101 34.209C87.7419 34.9178 90.3392 35.718 92.9019 36.6096C97.7042 46.5253 103.423 55.9691 109.984 64.8171C113.019 71.1425 114.945 77.9434 115.678 84.9225C114.586 87.7018 113.387 90.4025 112.082 93.0246Z" fill="#BABEC3"/>
<path d="M405.172 34.209C406.163 34.3555 407.096 34.7706 407.869 35.4093C409.913 40.102 412.111 44.7032 414.462 49.213C420.249 52.9568 424.584 58.5683 426.749 65.1172C426.055 67.9635 425.753 70.8913 425.85 73.8195C426.749 74.4942 427.829 74.8835 428.951 74.937C430.073 74.9905 431.185 74.7057 432.143 74.1196C433.709 72.5514 435.308 70.951 436.938 69.3183C439.11 69.1863 440.309 70.2866 440.534 72.6192C439.642 74.6331 439.258 76.8356 439.415 79.0331C439.571 81.2307 440.265 83.356 441.434 85.2226C443.402 87.697 445.5 90.0977 447.727 92.4245C449.392 93.816 451.333 94.8387 453.421 95.4253C452.956 100.627 451.092 105.604 448.027 109.829L442.632 115.231C441.477 118.753 439.644 122.015 437.238 124.833C435.223 129.413 433.521 134.125 432.143 138.937C432.593 139.839 433.202 140.653 433.941 141.338C438.251 141.903 439.95 144.203 439.036 148.239C441.061 151.515 442.863 154.924 444.43 158.442C444.83 160.017 444.83 161.668 444.43 163.243C442.43 166.085 441.072 169.328 440.451 172.749C439.83 176.169 439.961 179.684 440.834 183.049C443.314 182.685 444.413 183.885 444.131 186.65C441.104 186.412 438.06 186.717 435.14 187.55C431.825 191.689 428.724 195.996 425.85 200.453C424.546 201.963 423.032 203.276 421.355 204.354C411.858 204.954 402.325 204.653 392.885 203.454C392.244 203.498 391.625 203.704 391.087 204.054C388.332 203.749 385.619 203.146 382.995 202.254C381.46 193.384 385.156 189.983 394.084 192.051C400.458 191.767 402.456 188.566 400.077 182.448C397.31 180.679 394.703 178.671 392.285 176.447C392.767 169.684 393.167 162.882 393.484 156.041C394.736 154.552 395.84 152.944 396.781 151.24C397.363 151.523 397.875 151.934 398.279 152.44C398.405 154.167 398.706 155.876 399.178 157.542C401.161 157.841 403.169 157.941 405.172 157.842C404.68 147.314 407.877 138.111 414.762 130.235C414.64 129.889 414.434 129.579 414.162 129.334C409.955 130.007 407.558 128.307 406.97 124.233C411.434 124.068 415.861 123.362 420.156 122.132C418.638 118.005 417.926 113.625 418.058 109.229C414.625 103.151 412.578 96.3874 412.065 89.4237C411.723 88.5349 411.214 87.7199 410.566 87.023C406.192 85.4016 402.424 82.4672 399.778 78.6208C399.834 77.7807 400.154 76.9799 400.692 76.333C401.23 75.6862 401.959 75.2265 402.774 75.0199C404.477 72.2867 404.177 69.8861 401.875 67.8179C401.063 61.0485 400.762 54.2273 400.976 47.4125C401.395 47.4948 401.827 47.4837 402.242 47.38C402.656 47.2763 403.043 47.0825 403.374 46.8123C403.861 46.0234 404.468 45.3148 405.172 44.7118C404.861 41.2178 404.861 37.703 405.172 34.209Z" fill="#BABEC3"/>
<path d="M334.447 94.2254C336.25 94.1262 338.06 94.2269 339.841 94.5255C342.46 96.9436 345.266 99.151 348.232 101.127C350.273 101.553 352.399 101.233 354.226 100.227C355.014 100.715 355.721 101.323 356.324 102.028C356.523 107.629 356.723 113.23 356.923 118.832C358.514 120.025 359.927 121.44 361.119 123.033C361.833 125.37 362.236 127.792 362.317 130.235C364.515 133.236 366.713 136.237 368.91 139.237C369.727 144.459 370.626 149.661 371.608 154.842C369.347 161.397 368.33 168.318 368.611 175.247C367.166 175.817 365.56 175.817 364.115 175.247C362.071 177.622 360.537 180.393 359.609 183.387C358.681 186.381 358.378 189.535 358.721 192.652C357.736 195.396 356.935 198.203 356.324 201.054C354.343 202.436 352.532 204.047 350.929 205.855C350.237 207.786 349.834 209.808 349.731 211.857C349.589 212.914 349.054 213.879 348.232 214.557C347.193 215.014 346.07 215.249 344.936 215.249C343.801 215.249 342.678 215.014 341.639 214.557C340.88 210.096 338.405 206.111 334.746 203.455C334.544 202.393 333.99 201.431 333.175 200.723C332.359 200.016 331.329 199.603 330.251 199.553C329.436 198.818 328.817 197.89 328.453 196.853C327.347 196.278 326.089 196.068 324.857 196.253C325.253 193.455 325.653 190.655 326.056 187.85C325.796 184.646 325.496 181.445 325.157 178.248C322.116 175.21 319.496 171.779 317.365 168.045C314.451 165.283 312.653 165.883 311.971 169.846C312.421 176.783 311.4 183.737 308.974 190.251C308.191 190.635 307.559 191.268 307.176 192.051C306.84 198.502 306.64 204.904 306.576 211.257L302.98 218.459C301.962 217.138 301.06 215.733 300.283 214.257C299.392 213.693 298.325 213.479 297.286 213.657C297.103 210.942 297.305 208.214 297.885 205.555C295.641 201.476 293.64 197.267 291.892 192.952C292.097 187.632 293.425 182.416 295.788 177.648C297.451 177.175 299.158 176.873 300.882 176.747C302.763 174.619 304.873 172.707 307.176 171.046C308.282 165.63 310.095 160.383 312.57 155.442C312.674 151.185 313.277 146.954 314.368 142.838C316.532 138.737 318.241 134.41 319.463 129.935C319.457 129.15 319.295 128.374 318.986 127.653C318.677 126.932 318.228 126.279 317.665 125.734C315.912 124.554 313.992 123.644 311.971 123.033C311.473 119.708 311.782 116.312 312.87 113.13C312.06 111.488 311.663 109.673 311.716 107.842C311.768 106.011 312.267 104.221 313.169 102.628C316.05 100.543 318.579 98.0104 320.661 95.1257C323.504 95.6291 326.308 96.331 329.052 97.2262C330.148 97.3195 331.246 97.0839 332.207 96.5494C333.167 96.0149 333.947 95.2058 334.447 94.2254Z" fill="#BABEC3"/>
<path d="M243.343 259.27C242.147 258.084 241.227 256.65 240.646 255.068C239.736 250.694 238.937 246.293 238.248 241.865C237.043 240.483 235.491 239.448 233.752 238.868C232.013 238.287 230.151 238.183 228.359 238.564C221.512 240.596 214.886 243.31 208.58 246.666C208.139 247.891 207.639 249.091 207.081 250.267C206.482 249.867 205.883 249.467 205.283 249.067C204.986 247.688 204.885 246.273 204.984 244.866C202.557 245.231 200.22 246.045 198.091 247.266C197.984 245.439 197.683 243.628 197.192 241.865C194.994 240.765 192.796 239.664 190.599 238.564C189.58 236.752 188.581 234.951 187.602 233.163C185.354 234.175 183.056 235.275 180.709 236.463C178.903 234.46 176.894 232.65 174.716 231.062C173.044 225.818 172.135 220.361 172.018 214.858C172.024 214.432 171.916 214.013 171.705 213.644C171.494 213.274 171.189 212.968 170.82 212.757C171.149 211.011 171.651 209.302 172.318 207.656C172.788 205.969 172.682 204.174 172.018 202.554C172.455 202.139 172.77 201.612 172.928 201.03C173.087 200.448 173.083 199.833 172.917 199.254C171.87 197.911 170.662 196.701 169.321 195.653C168.791 192.124 166.694 190.524 163.028 190.851C160.991 188.424 159.185 185.812 157.634 183.049C158.63 180.343 160.046 177.812 161.829 175.547C165.765 175.003 169.661 174.303 173.517 173.447C174.634 170.691 175.633 167.891 176.514 165.044C178.301 164.027 179.1 162.426 178.911 160.243L180.409 158.743C182.659 158.688 184.857 158.588 187.003 158.443C187.483 153.871 187.782 149.269 187.902 144.639L188.501 144.039C191.525 146.149 194.863 147.77 198.39 148.84C199.29 150.04 200.408 151.059 201.687 151.841C202.61 153.857 203.981 155.634 205.695 157.039C207.409 158.443 209.421 159.436 211.577 159.943C214.378 160.475 217.27 160.268 219.968 159.343C222.345 157.762 224.383 155.722 225.961 153.341C227.589 152.264 229.429 151.548 231.356 151.241C232.717 148.886 234.554 146.841 236.75 145.239C238.235 147.184 239.259 149.442 239.747 151.841C240.552 152.287 241.477 152.47 242.391 152.362C243.305 152.254 244.162 151.862 244.841 151.241C243.826 145.928 245.924 143.427 251.135 143.739C257.692 147.065 260.489 152.466 259.526 159.943C258.493 165.177 258.191 170.53 258.627 175.847C259.041 176.411 259.583 176.869 260.208 177.182C260.833 177.495 261.524 177.655 262.223 177.648C265.924 176.495 269.379 174.663 272.412 172.246C274.074 168.192 275.28 163.965 276.008 159.643C277.938 155.325 281.235 153.625 285.898 154.542C288.433 156.872 290.56 159.61 292.191 162.644C292.144 167.328 292.852 171.989 294.289 176.447C293.521 180.181 291.878 183.678 289.494 186.65C289.959 189.229 290.26 191.835 290.393 194.452C291.832 197.536 293.433 200.54 295.188 203.455C295.299 211.684 295.598 219.886 296.087 228.061C295.966 228.407 295.76 228.716 295.488 228.961C298.278 230.7 299.177 233.201 298.185 236.463L297.286 238.264C293.042 238.607 288.846 239.107 284.699 239.764C283.224 241.646 281.725 243.547 280.204 245.466C279.851 249.302 279.25 253.111 278.406 256.869C275.923 259.062 272.938 260.608 269.715 261.37C262.928 261.77 256.124 261.77 249.337 261.37C247.391 260.528 245.388 259.826 243.343 259.27Z" fill="#BABEC3"/>
<path d="M442.333 151.84C442.347 151.686 442.414 151.541 442.524 151.431C442.633 151.322 442.778 151.254 442.932 151.24C447.775 153.688 452.912 155.503 458.216 156.642L467.207 151.24C471.756 152.104 476.258 153.206 480.692 154.541C485.09 157.745 489.695 160.652 494.478 163.243C491.141 168.292 487.218 172.925 482.79 177.047C482.064 181.815 480.215 186.341 477.396 190.251C472.965 194.67 468.151 198.687 463.011 202.254C461.869 204.269 461.251 206.539 461.213 208.856C459.33 211.289 456.988 213.328 454.32 214.857C453.637 216.394 453.134 218.005 452.822 219.658C450.338 220.639 449.239 222.44 449.525 225.06C447.946 224.756 446.335 224.656 444.73 224.76C442.899 226.558 440.89 228.166 438.737 229.561C437.156 229.829 435.668 230.492 434.41 231.489C433.153 232.485 432.167 233.783 431.544 235.263C430.697 235.937 429.795 236.539 428.847 237.063C428.134 240.82 425.836 242.32 421.954 241.564C419.354 243.499 416.204 244.551 412.964 244.565C411.166 246.766 409.368 248.966 407.57 251.167C406.6 251.462 405.582 251.564 404.573 251.467C404.685 250.235 404.479 248.995 403.973 247.866C400.713 247.104 397.838 245.185 395.882 242.465C395.482 240.484 395.482 238.443 395.882 236.463C397.863 234.281 398.462 231.681 397.68 228.661C395.823 228.088 393.925 227.588 391.986 227.16C391.611 226.71 391.307 226.204 391.087 225.66C390.887 220.259 390.688 214.857 390.488 209.456C390.416 207.937 389.894 206.475 388.989 205.255C391.154 204.58 393.487 204.687 395.582 205.555C404.97 205.855 414.36 205.955 423.752 205.855C424.564 202.935 426.365 200.388 428.847 198.653C430.705 195.396 432.809 192.286 435.14 189.35C438.353 187.987 441.861 187.47 445.33 187.85C445.428 186.243 445.328 184.631 445.03 183.049C444.177 182.233 443.153 181.618 442.033 181.248C440.962 175.2 442.249 168.97 445.629 163.844C446.062 161.724 445.989 159.533 445.416 157.447C444.843 155.361 443.787 153.44 442.333 151.84Z" fill="#BABEC3"/>
<path d="M510.661 154.241C514.456 154.477 518.195 155.286 521.749 156.642C525.051 154.826 528.048 155.226 530.739 157.842C532.214 159.498 533.336 161.438 534.036 163.544C533.724 163.877 533.516 164.294 533.437 164.744C535.025 174.03 536.523 183.333 537.932 192.651C539.223 194.34 540.142 196.283 540.629 198.353C539.791 200.43 538.789 202.437 537.632 204.355C534.053 206.1 530.201 207.216 526.244 207.655C525.789 209.214 525.687 210.854 525.944 212.457C527.872 214.269 529.981 215.878 532.238 217.258C529.613 221.114 526.116 223.115 521.749 223.26C520.58 224.178 519.262 224.888 517.853 225.36C518.241 227.225 519.063 228.973 520.25 230.462C519.93 231.204 519.528 231.909 519.052 232.562C517.819 233.026 516.697 233.741 515.755 234.663C515.207 236.848 514.708 239.049 514.257 241.264C513.674 241.548 513.162 241.958 512.758 242.465C510.881 235.724 508.579 229.109 505.866 222.659C503.104 222.041 500.299 221.64 497.475 221.459C496.778 221.381 496.072 221.448 495.402 221.654C494.732 221.861 494.111 222.203 493.579 222.659C493.29 227.837 492.072 232.919 489.982 237.663C487.601 239.495 486.502 238.795 486.686 235.563C487.835 230.751 488.139 225.775 487.585 220.859C485.739 219.428 483.841 219.428 481.891 220.859C480.952 219.521 479.844 218.311 478.594 217.258C477.434 217.535 476.388 218.164 475.598 219.058C475.029 221.336 474.226 223.549 473.2 225.66C471.436 224.219 469.738 222.719 468.106 221.159C465.847 219.979 463.949 220.479 462.412 222.659C461.497 227.514 459.775 232.18 457.317 236.463C456.359 236.866 455.3 236.968 454.283 236.753C453.265 236.539 452.338 236.019 451.623 235.263C451.124 231.081 450.924 226.869 451.024 222.659C451.825 221.755 452.73 220.95 453.721 220.259C454.135 218.595 454.738 216.984 455.519 215.458C457.895 213.888 460.105 212.078 462.112 210.056C462 208.366 462.328 206.676 463.063 205.151C463.798 203.625 464.916 202.317 466.307 201.354C473.902 197.358 479.923 190.907 483.389 183.049C483.589 181.448 483.789 179.848 483.989 178.248C485.97 176.263 487.968 174.263 489.982 172.246C491.082 169.547 492.712 167.098 494.777 165.044C500.16 161.505 505.454 157.904 510.661 154.241Z" fill="#BABEC3"/>
<path d="M314.668 167.444C317.099 170.197 319.21 173.217 320.961 176.447C321.962 177.55 323.066 178.555 324.257 179.448C323.945 180.111 323.743 180.82 323.658 181.548C324.493 183.719 324.87 186.039 324.767 188.363C324.664 190.686 324.082 192.964 323.059 195.052C323.382 195.889 323.963 196.602 324.717 197.087C325.471 197.573 326.359 197.805 327.254 197.752C327.625 198.807 328.261 199.748 329.101 200.484C329.941 201.22 330.956 201.726 332.049 201.954C334.347 204.654 336.644 207.355 338.942 210.056C338.922 211.542 339.234 213.015 339.857 214.365C340.479 215.715 341.395 216.909 342.538 217.858C343.798 219.439 344.648 221.307 345.014 223.296C345.38 225.285 345.25 227.334 344.636 229.261C341.946 228.941 339.224 229.465 336.844 230.761C335.848 234.86 333.896 238.665 331.15 241.864C331.1 244.478 331.301 247.091 331.75 249.666C332.044 251.651 332.873 253.519 334.147 255.068C334.354 258.471 334.254 261.885 333.847 265.27C334.411 266.197 334.816 267.211 335.046 268.271C334.311 270.106 332.923 271.603 331.15 272.472C327.915 271.511 324.608 270.808 321.261 270.372C320.404 269.06 319.398 267.851 318.264 266.771C314.867 266.571 311.471 266.371 308.075 266.171L306.876 264.97C305.478 264.87 304.079 264.77 302.68 264.67C299.305 265.174 295.902 265.474 292.491 265.57C289.032 264.34 285.636 262.939 282.302 261.369C280.557 261.048 278.762 261.124 277.05 261.591C275.338 262.059 273.753 262.906 272.412 264.07C272.004 263.764 271.692 263.348 271.513 262.87C274.033 261.595 276.636 260.492 279.305 259.569C279.632 259.015 280.036 258.51 280.504 258.068C281 254.889 281.301 251.682 281.403 248.466C284.154 240.936 289.448 238.236 297.286 240.364C298.272 239.776 299.096 238.951 299.683 237.963C301.002 233.636 300.303 229.735 297.586 226.26C297.186 222.871 297.186 219.446 297.586 216.057C299.836 216.271 301.534 217.571 302.68 219.958C303.233 220.245 303.862 220.35 304.478 220.258C305.956 216.195 307.355 212.094 308.674 207.955C308.63 207.314 308.424 206.694 308.075 206.155C308.564 201.701 308.863 197.2 308.974 192.651C311.009 189.84 312.531 186.691 313.469 183.349C313.134 182.914 312.926 182.394 312.87 181.848C313.328 177.464 313.628 173.063 313.769 168.645C314.18 168.342 314.493 167.925 314.668 167.444Z" fill="#BABEC3"/>
<path d="M356.024 202.854C357.844 202.662 359.685 202.867 361.418 203.455C362.329 205.959 362.835 208.593 362.917 211.257C367.443 216.287 371.539 215.987 375.204 210.356C375.967 210.064 376.79 209.961 377.601 210.056C377.509 209.44 377.614 208.809 377.901 208.256C383.59 201.97 387.385 202.971 389.289 211.257C389.147 215.852 389.147 220.453 389.289 225.06C390.607 228.34 393.104 229.741 396.781 229.261C396.952 230.682 396.798 232.122 396.331 233.474C395.864 234.826 395.095 236.053 394.084 237.064C393.133 240.728 394.032 243.829 396.781 246.366C398.566 247.57 400.63 248.293 402.775 248.467C403.213 251.62 401.814 252.92 398.579 252.368C397.505 253.141 396.66 254.191 396.133 255.406C395.605 256.621 395.415 257.955 395.582 259.269C393.68 260.094 391.655 260.601 389.589 260.77C388.901 262.861 387.528 264.659 385.693 265.871C384.614 265.119 383.392 264.597 382.103 264.339C380.814 264.081 379.485 264.092 378.201 264.371C378.011 265.241 377.612 266.052 377.037 266.732C376.462 267.412 375.73 267.941 374.904 268.272C372.115 267.823 369.318 267.423 366.513 267.072C361.84 268.604 356.801 268.604 352.128 267.072C349.557 267.2 347.07 268.03 344.936 269.472C342.32 269.206 339.719 268.805 337.144 268.272C335.591 266.332 335.391 264.331 336.545 262.27C336.944 260.29 336.944 258.249 336.545 256.269C334.969 254.374 333.829 252.155 333.208 249.769C332.586 247.383 332.498 244.889 332.948 242.465C333.813 240.806 334.925 239.288 336.245 237.964C336.989 236.215 337.591 234.409 338.043 232.562C340.68 231.491 343.383 230.588 346.134 229.862C346.254 227.739 346.555 225.631 347.033 223.56C346.586 221.417 345.548 219.441 344.037 217.858C346.353 216.674 348.758 215.67 351.229 214.858C351.724 212.486 352.025 210.077 352.128 207.656C353.531 206.143 354.832 204.539 356.024 202.854Z" fill="#BABEC3"/>
<path d="M477.695 218.458C478.901 219.351 479.919 220.473 480.692 221.759C481.457 221.999 482.269 222.043 483.055 221.886C483.841 221.728 484.574 221.375 485.188 220.859C485.637 220.939 486.053 221.147 486.386 221.459C486.91 226.077 486.605 230.752 485.487 235.262C485.609 236.881 485.809 238.482 486.087 240.064C487.611 240.231 489.154 240.025 490.582 239.464C493.172 234.32 494.7 228.707 495.077 222.959C498.225 223.645 501.458 223.847 504.667 223.559C507.817 230.225 510.036 237.293 511.26 244.565C511.124 246.676 510.509 248.729 509.462 250.567C507.077 250.866 504.671 250.966 502.269 250.867C501.969 254.413 502.377 257.983 503.468 261.369C502.566 262.372 501.561 263.277 500.471 264.07C500.049 265.445 499.444 266.757 498.673 267.971C496.474 268.242 494.246 268.14 492.08 267.671C492.241 266.34 492.033 264.991 491.481 263.77C489.163 263.653 486.858 263.351 484.588 262.87C481.088 266.215 477.991 265.915 475.298 261.97C474.247 261.335 473.032 261.025 471.806 261.078C470.58 261.132 469.397 261.546 468.405 262.27C467.696 261.354 466.769 260.632 465.708 260.169C462.512 259.969 459.315 259.769 456.118 259.569C454.79 257.811 453.683 255.896 452.822 253.867C449.491 254.225 446.153 253.255 443.532 251.167C441.842 250.754 440.067 250.859 438.437 251.467C436.646 250.569 434.724 249.961 432.743 249.666C428.554 250.877 424.139 251.082 419.857 250.266C418.542 251.765 417.03 253.078 415.361 254.168C410.738 253.599 407.642 255.499 406.071 259.869C405.229 259.099 404.327 258.396 403.374 257.768C401.175 258.041 398.946 257.94 396.781 257.468C397.558 256.633 398.078 255.591 398.279 254.468C400.563 253.479 402.992 252.871 405.472 252.667C406.112 252.711 406.731 252.917 407.27 253.267C409.021 250.494 411.138 247.971 413.563 245.765C418.553 244.366 423.548 242.966 428.547 241.564C430.265 238.239 432.489 235.202 435.14 232.562C437.229 231.489 439.444 230.682 441.733 230.161C442.781 228.818 443.989 227.609 445.33 226.56C445.916 226.354 446.54 226.274 447.16 226.326C447.779 226.378 448.381 226.56 448.926 226.86C449.782 230.219 450.481 233.62 451.024 237.063C453.501 239.243 455.898 239.243 458.216 237.063C460.658 232.316 462.761 227.403 464.509 222.359C464.878 222.162 465.29 222.059 465.708 222.059C466.126 222.059 466.538 222.162 466.907 222.359C468.31 223.968 469.923 225.381 471.702 226.56C472.177 226.758 472.686 226.86 473.2 226.86C473.715 226.86 474.224 226.758 474.699 226.56C475.351 224.499 475.852 222.393 476.197 220.258C476.804 219.757 477.313 219.147 477.695 218.458Z" fill="#BABEC3"/>
<path d="M278.706 262.87C283.962 264.75 289.256 266.55 294.589 268.272C298.256 266.643 302.318 266.122 306.276 266.771C306.548 267.016 306.754 267.326 306.876 267.671C310.453 268.169 314.054 268.47 317.664 268.572C318.584 269.794 319.386 271.1 320.062 272.473C324.621 273.184 329.235 273.485 333.847 273.373C335.347 272.523 336.753 271.517 338.043 270.372C341.229 270.53 344.426 270.53 347.633 270.372C348.176 269.706 348.863 269.172 349.641 268.808C350.419 268.444 351.269 268.261 352.128 268.272C354.652 269.055 357.278 269.459 359.92 269.472C365.003 268.983 370.121 268.983 375.204 269.472C375.28 269.99 375.208 270.518 374.996 270.997C374.784 271.475 374.44 271.883 374.005 272.173C368.036 274.732 362.042 277.232 356.024 279.675C354.53 281.471 352.929 283.174 351.229 284.776C348.831 285.176 346.434 285.576 344.037 285.976C343.271 287.544 342.006 288.811 340.44 289.577L342.838 291.978C338.991 294.354 335.095 296.655 331.15 298.88C333.125 303.44 335.323 308.042 337.743 312.683C338.536 314.366 338.848 316.236 338.642 318.085C334.153 320.058 329.549 321.762 324.857 323.186C323.458 324.187 322.06 325.187 320.661 326.187C316.574 326.798 312.378 327.598 308.075 328.588C302.81 332.678 297.194 336.293 291.292 339.39C287.496 340.391 283.7 341.391 279.904 342.391C278.193 344.404 276.593 346.507 275.109 348.693C269.787 350.224 264.58 352.13 259.526 354.394C257.646 357.576 255.648 360.677 253.532 363.697C248.078 359.937 242.872 355.828 237.949 351.394C232.754 348.993 227.559 346.592 222.365 344.192C217.715 339.556 211.534 336.781 204.983 336.39C200.989 336.023 196.993 335.723 192.996 335.489C193.179 333.671 193.479 331.867 193.895 330.088C201.993 316.674 209.784 303.071 217.27 289.277C217.401 288.648 217.388 287.997 217.232 287.374C217.076 286.75 216.782 286.17 216.371 285.676C222.171 285.36 227.965 285.16 233.753 285.076C234.496 283.34 235.295 281.639 236.151 279.975C239.954 279.563 243.799 279.766 247.538 280.575C249.02 279.584 250.423 278.481 251.734 277.274C258.796 275.718 265.64 273.299 272.113 270.072C272.995 268.558 273.699 266.947 274.21 265.271C275.788 264.519 277.287 263.719 278.706 262.87Z" fill="#BABEC3"/>
</svg>
